<svg width="48" height="48" viewBox="0 0 48 48" fill="none" xmlns="http://www.w3.org/2000/svg">
<g id="Figma">
<g id="Figma_2">
<rect id="Rectangle" width="48" height="48" rx="24" fill="#2C2C2C"/>
<g id="Group">
<path id="Vector" opacity="0.5" d="M19.1458 40C22.0898 40 24.4792 37.6107 24.4792 34.6667V29.3333H19.1458C16.2018 29.3333 13.8125 31.7227 13.8125 34.6667C13.8125 37.6107 16.2018 40 19.1458 40Z" fill="white"/>
<path id="Vector_2" opacity="0.7" d="M13.8125 24C13.8125 21.056 16.2018 18.6667 19.1458 18.6667H24.4792V29.3333H19.1458C16.2018 29.3333 13.8125 26.944 13.8125 24Z" fill="white"/>
<path id="Vector_3" d="M13.8125 13.3333C13.8125 10.3893 16.2018 8 19.1458 8H24.4792V18.6667H19.1458C16.2018 18.6667 13.8125 16.2773 13.8125 13.3333Z" fill="white"/>
<path id="Vector_4" opacity="0.85" d="M24.4792 8H29.8125C32.7565 8 35.1459 10.3893 35.1459 13.3333C35.1459 16.2773 32.7565 18.6667 29.8125 18.6667H24.4792V8Z" fill="white"/>
<path id="Vector_5" opacity="0.9" d="M35.1459 24C35.1459 26.944 32.7565 29.3333 29.8125 29.3333C26.8685 29.3333 24.4792 26.944 24.4792 24C24.4792 21.056 26.8685 18.6667 29.8125 18.6667C32.7565 18.6667 35.1459 21.056 35.1459 24Z" fill="white"/>
</g>
</g>
</g>
</svg>
