<svg width="55" height="71" viewBox="0 0 55 71" fill="none" xmlns="http://www.w3.org/2000/svg">
<path d="M12.736 59V51.064C12.7573 51.064 12.8853 51.0747 13.12 51.096C13.3547 51.1173 13.5147 51.128 13.6 51.128C13.6853 51.128 13.8453 51.1387 14.08 51.16C14.336 51.16 14.528 51.1707 14.656 51.192C14.8053 51.192 14.9973 51.2027 15.232 51.224C15.488 51.224 15.7013 51.2347 15.872 51.256C16.064 51.256 16.2667 51.256 16.48 51.256C16.7147 51.256 16.9387 51.256 17.152 51.256C18.816 51.256 20.3947 50.8827 21.888 50.136C23.3813 49.3893 24.7147 48.3227 25.888 46.936C27.0613 45.5493 27.9893 43.7787 28.672 41.624C29.376 39.448 29.728 37.0373 29.728 34.392C29.728 29.9973 28.6613 26.7013 26.528 24.504C24.3947 22.3067 21.2587 21.208 17.12 21.208C15.648 21.208 13.7707 21.2613 11.488 21.368C9.20533 21.4533 7.49867 21.496 6.368 21.496H2.144V59H12.736ZM19.232 32.984V37.72C19.232 39.8533 18.7627 41.4853 17.824 42.616C16.9067 43.7467 15.6053 44.312 13.92 44.312H12.736V27.672H14.272C15.872 27.672 17.0987 28.1627 17.952 29.144C18.8053 30.1253 19.232 31.4053 19.232 32.984Z" fill="#949494"/>
<path d="M36.3359 38.7891C40.9193 38.7891 43.2109 41.0156 43.2109 45.4688V60H34.8125V40.9961C34.5781 40.8398 34.2656 40.7617 33.875 40.7617C33.4974 40.7617 33.1003 40.8529 32.6836 41.0352C32.2669 41.2174 31.8307 41.4714 31.375 41.7969C30.3984 42.513 29.5326 43.4115 28.7773 44.4922V60H20.3789V32.3633H28.7773V42.4414C31.0039 40.0065 33.5234 38.7891 36.3359 38.7891Z" fill="white"/>
</svg>
